# Tiled2Unity generated file. Do not modify by hand.
# Wavefront file for 'Castle_mesh_0003.obj'

# Vertices (Count = 220)
v 0 -1 0
v -1 -1 0
v -1 0 0
v 0 0 0
v -1 -1 0
v -2 -1 0
v -2 0 0
v -1 0 0
v -2 -1 0
v -3 -1 0
v -3 0 0
v -2 0 0
v -3 -1 0
v -4 -1 0
v -4 0 0
v -3 0 0
v -4 -1 0
v -5 -1 0
v -5 0 0
v -4 0 0
v -5 -1 0
v -6 -1 0
v -6 0 0
v -5 0 0
v -6 -1 0
v -7 -1 0
v -7 0 0
v -6 0 0
v -7 -1 0
v -8 -1 0
v -8 0 0
v -7 0 0
v -8 -1 0
v -9 -1 0
v -9 0 0
v -8 0 0
v -9 -1 0
v -10 -1 0
v -10 0 0
v -9 0 0
v -10 -1 0
v -11 -1 0
v -11 0 0
v -10 0 0
v -11 -1 0
v -12 -1 0
v -12 0 0
v -11 0 0
v -12 -1 0
v -13 -1 0
v -13 0 0
v -12 0 0
v -13 -1 0
v -14 -1 0
v -14 0 0
v -13 0 0
v -14 -1 0
v -15 -1 0
v -15 0 0
v -14 0 0
v -15 -1 0
v -16 -1 0
v -16 0 0
v -15 0 0
v -16 -1 0
v -17 -1 0
v -17 0 0
v -16 0 0
v -17 -1 0
v -18 -1 0
v -18 0 0
v -17 0 0
v -18 -1 0
v -19 -1 0
v -19 0 0
v -18 0 0
v -19 -1 0
v -20 -1 0
v -20 0 0
v -19 0 0
v -20 -1 0
v -21 -1 0
v -21 0 0
v -20 0 0
v -21 -1 0
v -22 -1 0
v -22 0 0
v -21 0 0
v -22 -1 0
v -23 -1 0
v -23 0 0
v -22 0 0
v -23 -1 0
v -24 -1 0
v -24 0 0
v -23 0 0
v -24 -1 0
v -25 -1 0
v -25 0 0
v -24 0 0
v 0 -9 0
v -1 -9 0
v -1 -8 0
v 0 -8 0
v -1 -9 0
v -2 -9 0
v -2 -8 0
v -1 -8 0
v -2 -9 0
v -3 -9 0
v -3 -8 0
v -2 -8 0
v -3 -9 0
v -4 -9 0
v -4 -8 0
v -3 -8 0
v -4 -9 0
v -5 -9 0
v -5 -8 0
v -4 -8 0
v -5 -9 0
v -6 -9 0
v -6 -8 0
v -5 -8 0
v -6 -9 0
v -7 -9 0
v -7 -8 0
v -6 -8 0
v -7 -9 0
v -8 -9 0
v -8 -8 0
v -7 -8 0
v -8 -9 0
v -9 -9 0
v -9 -8 0
v -8 -8 0
v -9 -9 0
v -10 -9 0
v -10 -8 0
v -9 -8 0
v -14 -9 0
v -15 -9 0
v -15 -8 0
v -14 -8 0
v -15 -9 0
v -16 -9 0
v -16 -8 0
v -15 -8 0
v -16 -9 0
v -17 -9 0
v -17 -8 0
v -16 -8 0
v -17 -9 0
v -18 -9 0
v -18 -8 0
v -17 -8 0
v -18 -9 0
v -19 -9 0
v -19 -8 0
v -18 -8 0
v -19 -9 0
v -20 -9 0
v -20 -8 0
v -19 -8 0
v -20 -9 0
v -21 -9 0
v -21 -8 0
v -20 -8 0
v -21 -9 0
v -22 -9 0
v -22 -8 0
v -21 -8 0
v -22 -9 0
v -23 -9 0
v -23 -8 0
v -22 -8 0
v -23 -9 0
v -24 -9 0
v -24 -8 0
v -23 -8 0
v -24 -9 0
v -25 -9 0
v -25 -8 0
v -24 -8 0
v -2 -11 0
v -3 -11 0
v -3 -10 0
v -2 -10 0
v -4 -11 0
v -5 -11 0
v -5 -10 0
v -4 -10 0
v -6 -11 0
v -7 -11 0
v -7 -10 0
v -6 -10 0
v -17 -11 0
v -18 -11 0
v -18 -10 0
v -17 -10 0
v -19 -11 0
v -20 -11 0
v -20 -10 0
v -19 -10 0
v -21 -11 0
v -22 -11 0
v -22 -10 0
v -21 -10 0
v -23 -11 0
v -24 -11 0
v -24 -10 0
v -23 -10 0
v 0 -15 0
v -1 -15 0
v -1 -14 0
v 0 -14 0
v -24 -15 0
v -25 -15 0
v -25 -14 0
v -24 -14 0

# Texture cooridinates (Count = 26)
vt 0.125 0.78125
vt 0.09375 0.78125
vt 0.09375 0.75
vt 0.125 0.75
vt 0.0625 1
vt 0.03125 1
vt 0.03125 0.96875
vt 0.0625 0.96875
vt 0.09375 0.96875
vt 0.125 0.96875
vt 0.125 1
vt 0.09375 1
vt 0.15625 0.8125
vt 0.1875 0.8125
vt 0.1875 0.84375
vt 0.15625 0.84375
vt 0.1875 0.75
vt 0.21875 0.75
vt 0.21875 0.78125
vt 0.1875 0.78125
vt 0.15625 0.75
vt 0.15625 0.78125
vt 0.03125 0.75
vt 0 0.75
vt 0 0.71875
vt 0.03125 0.71875

# Normal
vn 0 0 -1

# Mesh description
g Castle_mesh_0003

# Faces
f 1/1/1 2/2/1 3/3/1 4/4/1
f 5/5/1 6/6/1 7/7/1 8/8/1
f 9/5/1 10/6/1 11/7/1 12/8/1
f 13/5/1 14/6/1 15/7/1 16/8/1
f 17/5/1 18/6/1 19/7/1 20/8/1
f 21/5/1 22/6/1 23/7/1 24/8/1
f 25/5/1 26/6/1 27/7/1 28/8/1
f 29/5/1 30/6/1 31/7/1 32/8/1
f 33/5/1 34/6/1 35/7/1 36/8/1
f 37/5/1 38/6/1 39/7/1 40/8/1
f 41/5/1 42/6/1 43/7/1 44/8/1
f 45/5/1 46/6/1 47/7/1 48/8/1
f 49/5/1 50/6/1 51/7/1 52/8/1
f 53/5/1 54/6/1 55/7/1 56/8/1
f 57/5/1 58/6/1 59/7/1 60/8/1
f 61/5/1 62/6/1 63/7/1 64/8/1
f 65/5/1 66/6/1 67/7/1 68/8/1
f 69/5/1 70/6/1 71/7/1 72/8/1
f 73/5/1 74/6/1 75/7/1 76/8/1
f 77/5/1 78/6/1 79/7/1 80/8/1
f 81/5/1 82/6/1 83/7/1 84/8/1
f 85/5/1 86/6/1 87/7/1 88/8/1
f 89/5/1 90/6/1 91/7/1 92/8/1
f 93/5/1 94/6/1 95/7/1 96/8/1
f 97/1/1 98/2/1 99/3/1 100/4/1
f 101/9/1 102/10/1 103/11/1 104/12/1
f 105/9/1 106/10/1 107/11/1 108/12/1
f 109/13/1 110/14/1 111/15/1 112/16/1
f 113/9/1 114/10/1 115/11/1 116/12/1
f 117/13/1 118/14/1 119/15/1 120/16/1
f 121/9/1 122/10/1 123/11/1 124/12/1
f 125/13/1 126/14/1 127/15/1 128/16/1
f 129/9/1 130/10/1 131/11/1 132/12/1
f 133/9/1 134/10/1 135/11/1 136/12/1
f 137/9/1 138/10/1 139/11/1 140/12/1
f 141/9/1 142/10/1 143/11/1 144/12/1
f 145/9/1 146/10/1 147/11/1 148/12/1
f 149/9/1 150/10/1 151/11/1 152/12/1
f 153/13/1 154/14/1 155/15/1 156/16/1
f 157/9/1 158/10/1 159/11/1 160/12/1
f 161/13/1 162/14/1 163/15/1 164/16/1
f 165/9/1 166/10/1 167/11/1 168/12/1
f 169/13/1 170/14/1 171/15/1 172/16/1
f 173/9/1 174/10/1 175/11/1 176/12/1
f 177/13/1 178/14/1 179/15/1 180/16/1
f 181/9/1 182/10/1 183/11/1 184/12/1
f 185/17/1 186/18/1 187/19/1 188/20/1
f 189/21/1 190/17/1 191/20/1 192/22/1
f 193/17/1 194/18/1 195/19/1 196/20/1
f 197/21/1 198/17/1 199/20/1 200/22/1
f 201/17/1 202/18/1 203/19/1 204/20/1
f 205/21/1 206/17/1 207/20/1 208/22/1
f 209/17/1 210/18/1 211/19/1 212/20/1
f 213/23/1 214/24/1 215/25/1 216/26/1
f 217/25/1 218/26/1 219/23/1 220/24/1

