# Tiled2Unity generated file. Do not modify by hand.
# Wavefront file for 'Caste_2_mesh_0004.obj'

# Vertices (Count = 108)
v 0 -1 0
v -1 -1 0
v -1 0 0
v 0 0 0
v -1 -1 0
v -2 -1 0
v -2 0 0
v -1 0 0
v -2 -1 0
v -3 -1 0
v -3 0 0
v -2 0 0
v -3 -1 0
v -4 -1 0
v -4 0 0
v -3 0 0
v -4 -1 0
v -5 -1 0
v -5 0 0
v -4 0 0
v -5 -1 0
v -6 -1 0
v -6 0 0
v -5 0 0
v -6 -1 0
v -7 -1 0
v -7 0 0
v -6 0 0
v -7 -1 0
v -8 -1 0
v -8 0 0
v -7 0 0
v -9 -1 0
v -10 -1 0
v -10 0 0
v -9 0 0
v -11 -1 0
v -12 -1 0
v -12 0 0
v -11 0 0
v -13 -1 0
v -14 -1 0
v -14 0 0
v -13 0 0
v -15 -1 0
v -16 -1 0
v -16 0 0
v -15 0 0
v -17 -1 0
v -18 -1 0
v -18 0 0
v -17 0 0
v -18 -1 0
v -19 -1 0
v -19 0 0
v -18 0 0
v -19 -1 0
v -20 -1 0
v -20 0 0
v -19 0 0
v -20 -1 0
v -21 -1 0
v -21 0 0
v -20 0 0
v -21 -1 0
v -22 -1 0
v -22 0 0
v -21 0 0
v -22 -1 0
v -23 -1 0
v -23 0 0
v -22 0 0
v -23 -1 0
v -24 -1 0
v -24 0 0
v -23 0 0
v -24 -1 0
v -25 -1 0
v -25 0 0
v -24 0 0
v -7 -8 0
v -8 -8 0
v -8 -7 0
v -7 -7 0
v -15 -8 0
v -16 -8 0
v -16 -7 0
v -15 -7 0
v -7 -9 0
v -8 -9 0
v -8 -8 0
v -7 -8 0
v -15 -9 0
v -16 -9 0
v -16 -8 0
v -15 -8 0
v -15 -10 0
v -16 -10 0
v -16 -9 0
v -15 -9 0
v -15 -16 0
v -16 -16 0
v -16 -15 0
v -15 -15 0
v -15 -17 0
v -16 -17 0
v -16 -16 0
v -15 -16 0

# Texture cooridinates (Count = 11)
vt 0.0625 1
vt 0.03125 1
vt 0.03125 0.96875
vt 0.0625 0.96875
vt 0.03125 0.75
vt 0 0.75
vt 0 0.71875
vt 0.03125 0.71875
vt 0.03125 0.6875
vt 0.0625 0.6875
vt 0.0625 0.71875

# Normal
vn 0 0 -1

# Mesh description
g Caste_2_mesh_0004

# Faces
f 1/1/1 2/2/1 3/3/1 4/4/1
f 5/1/1 6/2/1 7/3/1 8/4/1
f 9/1/1 10/2/1 11/3/1 12/4/1
f 13/1/1 14/2/1 15/3/1 16/4/1
f 17/1/1 18/2/1 19/3/1 20/4/1
f 21/1/1 22/2/1 23/3/1 24/4/1
f 25/1/1 26/2/1 27/3/1 28/4/1
f 29/1/1 30/2/1 31/3/1 32/4/1
f 33/1/1 34/2/1 35/3/1 36/4/1
f 37/1/1 38/2/1 39/3/1 40/4/1
f 41/1/1 42/2/1 43/3/1 44/4/1
f 45/1/1 46/2/1 47/3/1 48/4/1
f 49/1/1 50/2/1 51/3/1 52/4/1
f 53/1/1 54/2/1 55/3/1 56/4/1
f 57/1/1 58/2/1 59/3/1 60/4/1
f 61/1/1 62/2/1 63/3/1 64/4/1
f 65/1/1 66/2/1 67/3/1 68/4/1
f 69/1/1 70/2/1 71/3/1 72/4/1
f 73/1/1 74/2/1 75/3/1 76/4/1
f 77/1/1 78/2/1 79/3/1 80/4/1
f 81/5/1 82/6/1 83/7/1 84/8/1
f 85/7/1 86/8/1 87/5/1 88/6/1
f 89/5/1 90/6/1 91/7/1 92/8/1
f 93/7/1 94/8/1 95/5/1 96/6/1
f 97/7/1 98/8/1 99/5/1 100/6/1
f 101/7/1 102/8/1 103/5/1 104/6/1
f 105/9/1 106/10/1 107/11/1 108/8/1

