# Tiled2Unity generated file. Do not modify by hand.
# Wavefront file for 'Caste_2_mesh_0002.obj'

# Vertices (Count = 596)
v 0 -1 0
v -1 -1 0
v -1 0 0
v 0 0 0
v -1 -1 0
v -2 -1 0
v -2 0 0
v -1 0 0
v -2 -1 0
v -3 -1 0
v -3 0 0
v -2 0 0
v -3 -1 0
v -4 -1 0
v -4 0 0
v -3 0 0
v -4 -1 0
v -5 -1 0
v -5 0 0
v -4 0 0
v -5 -1 0
v -6 -1 0
v -6 0 0
v -5 0 0
v -6 -1 0
v -7 -1 0
v -7 0 0
v -6 0 0
v -7 -1 0
v -8 -1 0
v -8 0 0
v -7 0 0
v -8 -1 0
v -9 -1 0
v -9 0 0
v -8 0 0
v -9 -1 0
v -10 -1 0
v -10 0 0
v -9 0 0
v -10 -1 0
v -11 -1 0
v -11 0 0
v -10 0 0
v -11 -1 0
v -12 -1 0
v -12 0 0
v -11 0 0
v -12 -1 0
v -13 -1 0
v -13 0 0
v -12 0 0
v -13 -1 0
v -14 -1 0
v -14 0 0
v -13 0 0
v -14 -1 0
v -15 -1 0
v -15 0 0
v -14 0 0
v -15 -1 0
v -16 -1 0
v -16 0 0
v -15 0 0
v -16 -1 0
v -17 -1 0
v -17 0 0
v -16 0 0
v -17 -1 0
v -18 -1 0
v -18 0 0
v -17 0 0
v -18 -1 0
v -19 -1 0
v -19 0 0
v -18 0 0
v -19 -1 0
v -20 -1 0
v -20 0 0
v -19 0 0
v -20 -1 0
v -21 -1 0
v -21 0 0
v -20 0 0
v -21 -1 0
v -22 -1 0
v -22 0 0
v -21 0 0
v -22 -1 0
v -23 -1 0
v -23 0 0
v -22 0 0
v -23 -1 0
v -24 -1 0
v -24 0 0
v -23 0 0
v -24 -1 0
v -25 -1 0
v -25 0 0
v -24 0 0
v 0 -2 0
v -1 -2 0
v -1 -1 0
v 0 -1 0
v -10 -2 0
v -11 -2 0
v -11 -1 0
v -10 -1 0
v -12 -2 0
v -13 -2 0
v -13 -1 0
v -12 -1 0
v -14 -2 0
v -15 -2 0
v -15 -1 0
v -14 -1 0
v -17 -2 0
v -18 -2 0
v -18 -1 0
v -17 -1 0
v -24 -2 0
v -25 -2 0
v -25 -1 0
v -24 -1 0
v 0 -3 0
v -1 -3 0
v -1 -2 0
v 0 -2 0
v -24 -3 0
v -25 -3 0
v -25 -2 0
v -24 -2 0
v 0 -4 0
v -1 -4 0
v -1 -3 0
v 0 -3 0
v -24 -4 0
v -25 -4 0
v -25 -3 0
v -24 -3 0
v 0 -5 0
v -1 -5 0
v -1 -4 0
v 0 -4 0
v -24 -5 0
v -25 -5 0
v -25 -4 0
v -24 -4 0
v 0 -6 0
v -1 -6 0
v -1 -5 0
v 0 -5 0
v -24 -6 0
v -25 -6 0
v -25 -5 0
v -24 -5 0
v 0 -7 0
v -1 -7 0
v -1 -6 0
v 0 -6 0
v -7 -7 0
v -8 -7 0
v -8 -6 0
v -7 -6 0
v -8 -7 0
v -9 -7 0
v -9 -6 0
v -8 -6 0
v -9 -7 0
v -10 -7 0
v -10 -6 0
v -9 -6 0
v -10 -7 0
v -11 -7 0
v -11 -6 0
v -10 -6 0
v -11 -7 0
v -12 -7 0
v -12 -6 0
v -11 -6 0
v -12 -7 0
v -13 -7 0
v -13 -6 0
v -12 -6 0
v -13 -7 0
v -14 -7 0
v -14 -6 0
v -13 -6 0
v -14 -7 0
v -15 -7 0
v -15 -6 0
v -14 -6 0
v -15 -7 0
v -16 -7 0
v -16 -6 0
v -15 -6 0
v -24 -7 0
v -25 -7 0
v -25 -6 0
v -24 -6 0
v 0 -8 0
v -1 -8 0
v -1 -7 0
v 0 -7 0
v -7 -8 0
v -8 -8 0
v -8 -7 0
v -7 -7 0
v -8 -8 0
v -9 -8 0
v -9 -7 0
v -8 -7 0
v -9 -8 0
v -10 -8 0
v -10 -7 0
v -9 -7 0
v -10 -8 0
v -11 -8 0
v -11 -7 0
v -10 -7 0
v -11 -8 0
v -12 -8 0
v -12 -7 0
v -11 -7 0
v -12 -8 0
v -13 -8 0
v -13 -7 0
v -12 -7 0
v -13 -8 0
v -14 -8 0
v -14 -7 0
v -13 -7 0
v -14 -8 0
v -15 -8 0
v -15 -7 0
v -14 -7 0
v -15 -8 0
v -16 -8 0
v -16 -7 0
v -15 -7 0
v -24 -8 0
v -25 -8 0
v -25 -7 0
v -24 -7 0
v 0 -9 0
v -1 -9 0
v -1 -8 0
v 0 -8 0
v -7 -9 0
v -8 -9 0
v -8 -8 0
v -7 -8 0
v -15 -9 0
v -16 -9 0
v -16 -8 0
v -15 -8 0
v -24 -9 0
v -25 -9 0
v -25 -8 0
v -24 -8 0
v 0 -10 0
v -1 -10 0
v -1 -9 0
v 0 -9 0
v -7 -10 0
v -8 -10 0
v -8 -9 0
v -7 -9 0
v -15 -10 0
v -16 -10 0
v -16 -9 0
v -15 -9 0
v -24 -10 0
v -25 -10 0
v -25 -9 0
v -24 -9 0
v 0 -11 0
v -1 -11 0
v -1 -10 0
v 0 -10 0
v -15 -11 0
v -16 -11 0
v -16 -10 0
v -15 -10 0
v -24 -11 0
v -25 -11 0
v -25 -10 0
v -24 -10 0
v 0 -12 0
v -1 -12 0
v -1 -11 0
v 0 -11 0
v -15 -12 0
v -16 -12 0
v -16 -11 0
v -15 -11 0
v -24 -12 0
v -25 -12 0
v -25 -11 0
v -24 -11 0
v 0 -13 0
v -1 -13 0
v -1 -12 0
v 0 -12 0
v -15 -13 0
v -16 -13 0
v -16 -12 0
v -15 -12 0
v -24 -13 0
v -25 -13 0
v -25 -12 0
v -24 -12 0
v 0 -14 0
v -1 -14 0
v -1 -13 0
v 0 -13 0
v -7 -14 0
v -8 -14 0
v -8 -13 0
v -7 -13 0
v -15 -14 0
v -16 -14 0
v -16 -13 0
v -15 -13 0
v -24 -14 0
v -25 -14 0
v -25 -13 0
v -24 -13 0
v 0 -15 0
v -1 -15 0
v -1 -14 0
v 0 -14 0
v -7 -15 0
v -8 -15 0
v -8 -14 0
v -7 -14 0
v -15 -15 0
v -16 -15 0
v -16 -14 0
v -15 -14 0
v -24 -15 0
v -25 -15 0
v -25 -14 0
v -24 -14 0
v 0 -16 0
v -1 -16 0
v -1 -15 0
v 0 -15 0
v -7 -16 0
v -8 -16 0
v -8 -15 0
v -7 -15 0
v -8 -16 0
v -9 -16 0
v -9 -15 0
v -8 -15 0
v -9 -16 0
v -10 -16 0
v -10 -15 0
v -9 -15 0
v -10 -16 0
v -11 -16 0
v -11 -15 0
v -10 -15 0
v -11 -16 0
v -12 -16 0
v -12 -15 0
v -11 -15 0
v -12 -16 0
v -13 -16 0
v -13 -15 0
v -12 -15 0
v -13 -16 0
v -14 -16 0
v -14 -15 0
v -13 -15 0
v -14 -16 0
v -15 -16 0
v -15 -15 0
v -14 -15 0
v -15 -16 0
v -16 -16 0
v -16 -15 0
v -15 -15 0
v -24 -16 0
v -25 -16 0
v -25 -15 0
v -24 -15 0
v 0 -17 0
v -1 -17 0
v -1 -16 0
v 0 -16 0
v -7 -17 0
v -8 -17 0
v -8 -16 0
v -7 -16 0
v -8 -17 0
v -9 -17 0
v -9 -16 0
v -8 -16 0
v -9 -17 0
v -10 -17 0
v -10 -16 0
v -9 -16 0
v -10 -17 0
v -11 -17 0
v -11 -16 0
v -10 -16 0
v -11 -17 0
v -12 -17 0
v -12 -16 0
v -11 -16 0
v -12 -17 0
v -13 -17 0
v -13 -16 0
v -12 -16 0
v -13 -17 0
v -14 -17 0
v -14 -16 0
v -13 -16 0
v -14 -17 0
v -15 -17 0
v -15 -16 0
v -14 -16 0
v -15 -17 0
v -16 -17 0
v -16 -16 0
v -15 -16 0
v -24 -17 0
v -25 -17 0
v -25 -16 0
v -24 -16 0
v 0 -18 0
v -1 -18 0
v -1 -17 0
v 0 -17 0
v -24 -18 0
v -25 -18 0
v -25 -17 0
v -24 -17 0
v 0 -19 0
v -1 -19 0
v -1 -18 0
v 0 -18 0
v -24 -19 0
v -25 -19 0
v -25 -18 0
v -24 -18 0
v 0 -20 0
v -1 -20 0
v -1 -19 0
v 0 -19 0
v -24 -20 0
v -25 -20 0
v -25 -19 0
v -24 -19 0
v 0 -21 0
v -1 -21 0
v -1 -20 0
v 0 -20 0
v -15 -21 0
v -16 -21 0
v -16 -20 0
v -15 -20 0
v -24 -21 0
v -25 -21 0
v -25 -20 0
v -24 -20 0
v 0 -22 0
v -1 -22 0
v -1 -21 0
v 0 -21 0
v -15 -22 0
v -16 -22 0
v -16 -21 0
v -15 -21 0
v -24 -22 0
v -25 -22 0
v -25 -21 0
v -24 -21 0
v 0 -23 0
v -1 -23 0
v -1 -22 0
v 0 -22 0
v -24 -23 0
v -25 -23 0
v -25 -22 0
v -24 -22 0
v 0 -24 0
v -1 -24 0
v -1 -23 0
v 0 -23 0
v -24 -24 0
v -25 -24 0
v -25 -23 0
v -24 -23 0
v 0 -25 0
v -1 -25 0
v -1 -24 0
v 0 -24 0
v -1 -25 0
v -2 -25 0
v -2 -24 0
v -1 -24 0
v -2 -25 0
v -3 -25 0
v -3 -24 0
v -2 -24 0
v -3 -25 0
v -4 -25 0
v -4 -24 0
v -3 -24 0
v -4 -25 0
v -5 -25 0
v -5 -24 0
v -4 -24 0
v -5 -25 0
v -6 -25 0
v -6 -24 0
v -5 -24 0
v -6 -25 0
v -7 -25 0
v -7 -24 0
v -6 -24 0
v -7 -25 0
v -8 -25 0
v -8 -24 0
v -7 -24 0
v -8 -25 0
v -9 -25 0
v -9 -24 0
v -8 -24 0
v -9 -25 0
v -10 -25 0
v -10 -24 0
v -9 -24 0
v -10 -25 0
v -11 -25 0
v -11 -24 0
v -10 -24 0
v -11 -25 0
v -12 -25 0
v -12 -24 0
v -11 -24 0
v -12 -25 0
v -13 -25 0
v -13 -24 0
v -12 -24 0
v -13 -25 0
v -14 -25 0
v -14 -24 0
v -13 -24 0
v -14 -25 0
v -15 -25 0
v -15 -24 0
v -14 -24 0
v -15 -25 0
v -16 -25 0
v -16 -24 0
v -15 -24 0
v -16 -25 0
v -17 -25 0
v -17 -24 0
v -16 -24 0
v -17 -25 0
v -18 -25 0
v -18 -24 0
v -17 -24 0
v -18 -25 0
v -19 -25 0
v -19 -24 0
v -18 -24 0
v -19 -25 0
v -20 -25 0
v -20 -24 0
v -19 -24 0
v -20 -25 0
v -21 -25 0
v -21 -24 0
v -20 -24 0
v -21 -25 0
v -22 -25 0
v -22 -24 0
v -21 -24 0
v -22 -25 0
v -23 -25 0
v -23 -24 0
v -22 -24 0
v -23 -25 0
v -24 -25 0
v -24 -24 0
v -23 -24 0
v -24 -25 0
v -25 -25 0
v -25 -24 0
v -24 -24 0

# Texture cooridinates (Count = 36)
vt 0.0625 0.9375
vt 0.09375 0.9375
vt 0.09375 0.96875
vt 0.0625 0.96875
vt 0.03125 0.90625
vt 0.0625 0.90625
vt 0.03125 0.9375
vt 0.15625 0.9375
vt 0.1875 0.9375
vt 0.1875 0.96875
vt 0.15625 0.96875
vt 0.03125 0.71875
vt 0.0625 0.71875
vt 0.0625 0.75
vt 0.03125 0.75
vt 0.125 0.90625
vt 0.15625 0.90625
vt 0.125 0.9375
vt 0.09375 0.78125
vt 0.125 0.78125
vt 0.125 0.8125
vt 0.09375 0.8125
vt 0 0.71875
vt 0 0.75
vt 0.125 0.65625
vt 0.15625 0.65625
vt 0.15625 0.6875
vt 0.125 0.6875
vt 0.0625 0.84375
vt 0.09375 0.84375
vt 0.09375 0.875
vt 0.0625 0.875
vt 0.1875 0.65625
vt 0.1875 0.6875
vt 0.15625 0.625
vt 0.1875 0.625

# Normal
vn 0 0 -1

# Mesh description
g Caste_2_mesh_0002

# Faces
f 1/1/1 2/2/1 3/3/1 4/4/1
f 5/1/1 6/2/1 7/3/1 8/4/1
f 9/1/1 10/2/1 11/3/1 12/4/1
f 13/1/1 14/2/1 15/3/1 16/4/1
f 17/1/1 18/2/1 19/3/1 20/4/1
f 21/1/1 22/2/1 23/3/1 24/4/1
f 25/1/1 26/2/1 27/3/1 28/4/1
f 29/1/1 30/2/1 31/3/1 32/4/1
f 33/5/1 34/6/1 35/1/1 36/7/1
f 37/1/1 38/2/1 39/3/1 40/4/1
f 41/8/1 42/9/1 43/10/1 44/11/1
f 45/1/1 46/2/1 47/3/1 48/4/1
f 49/8/1 50/9/1 51/10/1 52/11/1
f 53/1/1 54/2/1 55/3/1 56/4/1
f 57/8/1 58/9/1 59/10/1 60/11/1
f 61/1/1 62/2/1 63/3/1 64/4/1
f 65/5/1 66/6/1 67/1/1 68/7/1
f 69/1/1 70/2/1 71/3/1 72/4/1
f 73/1/1 74/2/1 75/3/1 76/4/1
f 77/1/1 78/2/1 79/3/1 80/4/1
f 81/1/1 82/2/1 83/3/1 84/4/1
f 85/1/1 86/2/1 87/3/1 88/4/1
f 89/1/1 90/2/1 91/3/1 92/4/1
f 93/1/1 94/2/1 95/3/1 96/4/1
f 97/1/1 98/2/1 99/3/1 100/4/1
f 101/12/1 102/13/1 103/14/1 104/15/1
f 105/16/1 106/17/1 107/8/1 108/18/1
f 109/16/1 110/17/1 111/8/1 112/18/1
f 113/16/1 114/17/1 115/8/1 116/18/1
f 117/19/1 118/20/1 119/21/1 120/22/1
f 121/23/1 122/12/1 123/15/1 124/24/1
f 125/12/1 126/13/1 127/14/1 128/15/1
f 129/23/1 130/12/1 131/15/1 132/24/1
f 133/12/1 134/13/1 135/14/1 136/15/1
f 137/23/1 138/12/1 139/15/1 140/24/1
f 141/12/1 142/13/1 143/14/1 144/15/1
f 145/23/1 146/12/1 147/15/1 148/24/1
f 149/12/1 150/13/1 151/14/1 152/15/1
f 153/23/1 154/12/1 155/15/1 156/24/1
f 157/12/1 158/13/1 159/14/1 160/15/1
f 161/25/1 162/26/1 163/27/1 164/28/1
f 165/25/1 166/26/1 167/27/1 168/28/1
f 169/25/1 170/26/1 171/27/1 172/28/1
f 173/25/1 174/26/1 175/27/1 176/28/1
f 177/25/1 178/26/1 179/27/1 180/28/1
f 181/25/1 182/26/1 183/27/1 184/28/1
f 185/25/1 186/26/1 187/27/1 188/28/1
f 189/25/1 190/26/1 191/27/1 192/28/1
f 193/25/1 194/26/1 195/27/1 196/28/1
f 197/23/1 198/12/1 199/15/1 200/24/1
f 201/12/1 202/13/1 203/14/1 204/15/1
f 205/1/1 206/2/1 207/3/1 208/4/1
f 209/1/1 210/2/1 211/3/1 212/4/1
f 213/1/1 214/2/1 215/3/1 216/4/1
f 217/1/1 218/2/1 219/3/1 220/4/1
f 221/1/1 222/2/1 223/3/1 224/4/1
f 225/1/1 226/2/1 227/3/1 228/4/1
f 229/1/1 230/2/1 231/3/1 232/4/1
f 233/1/1 234/2/1 235/3/1 236/4/1
f 237/1/1 238/2/1 239/3/1 240/4/1
f 241/23/1 242/12/1 243/15/1 244/24/1
f 245/12/1 246/13/1 247/14/1 248/15/1
f 249/15/1 250/24/1 251/23/1 252/12/1
f 253/23/1 254/12/1 255/15/1 256/24/1
f 257/23/1 258/12/1 259/15/1 260/24/1
f 261/12/1 262/13/1 263/14/1 264/15/1
f 265/15/1 266/24/1 267/23/1 268/12/1
f 269/23/1 270/12/1 271/15/1 272/24/1
f 273/23/1 274/12/1 275/15/1 276/24/1
f 277/29/1 278/30/1 279/31/1 280/32/1
f 281/23/1 282/12/1 283/15/1 284/24/1
f 285/23/1 286/12/1 287/15/1 288/24/1
f 289/29/1 290/30/1 291/31/1 292/32/1
f 293/23/1 294/12/1 295/15/1 296/24/1
f 297/23/1 298/12/1 299/15/1 300/24/1
f 301/29/1 302/30/1 303/31/1 304/32/1
f 305/23/1 306/12/1 307/15/1 308/24/1
f 309/23/1 310/12/1 311/15/1 312/24/1
f 313/29/1 314/30/1 315/31/1 316/32/1
f 317/15/1 318/24/1 319/23/1 320/12/1
f 321/23/1 322/12/1 323/15/1 324/24/1
f 325/23/1 326/12/1 327/15/1 328/24/1
f 329/12/1 330/13/1 331/14/1 332/15/1
f 333/15/1 334/24/1 335/23/1 336/12/1
f 337/23/1 338/12/1 339/15/1 340/24/1
f 341/23/1 342/12/1 343/15/1 344/24/1
f 345/12/1 346/13/1 347/14/1 348/15/1
f 349/25/1 350/26/1 351/27/1 352/28/1
f 353/25/1 354/26/1 355/27/1 356/28/1
f 357/25/1 358/26/1 359/27/1 360/28/1
f 361/25/1 362/26/1 363/27/1 364/28/1
f 365/25/1 366/26/1 367/27/1 368/28/1
f 369/25/1 370/26/1 371/27/1 372/28/1
f 373/25/1 374/26/1 375/27/1 376/28/1
f 377/25/1 378/26/1 379/27/1 380/28/1
f 381/25/1 382/26/1 383/27/1 384/28/1
f 385/23/1 386/12/1 387/15/1 388/24/1
f 389/12/1 390/13/1 391/14/1 392/15/1
f 393/1/1 394/2/1 395/3/1 396/4/1
f 397/1/1 398/2/1 399/3/1 400/4/1
f 401/1/1 402/2/1 403/3/1 404/4/1
f 405/1/1 406/2/1 407/3/1 408/4/1
f 409/1/1 410/2/1 411/3/1 412/4/1
f 413/1/1 414/2/1 415/3/1 416/4/1
f 417/1/1 418/2/1 419/3/1 420/4/1
f 421/1/1 422/2/1 423/3/1 424/4/1
f 425/1/1 426/2/1 427/3/1 428/4/1
f 429/23/1 430/12/1 431/15/1 432/24/1
f 433/12/1 434/13/1 435/14/1 436/15/1
f 437/23/1 438/12/1 439/15/1 440/24/1
f 441/12/1 442/13/1 443/14/1 444/15/1
f 445/23/1 446/12/1 447/15/1 448/24/1
f 449/12/1 450/13/1 451/14/1 452/15/1
f 453/23/1 454/12/1 455/15/1 456/24/1
f 457/12/1 458/13/1 459/14/1 460/15/1
f 461/26/1 462/33/1 463/34/1 464/27/1
f 465/23/1 466/12/1 467/15/1 468/24/1
f 469/12/1 470/13/1 471/14/1 472/15/1
f 473/35/1 474/36/1 475/33/1 476/26/1
f 477/23/1 478/12/1 479/15/1 480/24/1
f 481/12/1 482/13/1 483/14/1 484/15/1
f 485/23/1 486/12/1 487/15/1 488/24/1
f 489/12/1 490/13/1 491/14/1 492/15/1
f 493/23/1 494/12/1 495/15/1 496/24/1
f 497/1/1 498/2/1 499/3/1 500/4/1
f 501/1/1 502/2/1 503/3/1 504/4/1
f 505/1/1 506/2/1 507/3/1 508/4/1
f 509/1/1 510/2/1 511/3/1 512/4/1
f 513/1/1 514/2/1 515/3/1 516/4/1
f 517/1/1 518/2/1 519/3/1 520/4/1
f 521/1/1 522/2/1 523/3/1 524/4/1
f 525/1/1 526/2/1 527/3/1 528/4/1
f 529/1/1 530/2/1 531/3/1 532/4/1
f 533/1/1 534/2/1 535/3/1 536/4/1
f 537/1/1 538/2/1 539/3/1 540/4/1
f 541/1/1 542/2/1 543/3/1 544/4/1
f 545/1/1 546/2/1 547/3/1 548/4/1
f 549/1/1 550/2/1 551/3/1 552/4/1
f 553/1/1 554/2/1 555/3/1 556/4/1
f 557/1/1 558/2/1 559/3/1 560/4/1
f 561/1/1 562/2/1 563/3/1 564/4/1
f 565/1/1 566/2/1 567/3/1 568/4/1
f 569/1/1 570/2/1 571/3/1 572/4/1
f 573/1/1 574/2/1 575/3/1 576/4/1
f 577/1/1 578/2/1 579/3/1 580/4/1
f 581/1/1 582/2/1 583/3/1 584/4/1
f 585/1/1 586/2/1 587/3/1 588/4/1
f 589/1/1 590/2/1 591/3/1 592/4/1
f 593/1/1 594/2/1 595/3/1 596/4/1

